<svg width="61" height="55" viewBox="0 0 61 55" fill="none" xmlns="http://www.w3.org/2000/svg">
<path d="M24.1857 33.1934C25.9331 34.7689 28.0379 35.5566 30.5002 35.5566C32.9624 35.5566 35.0672 34.7689 36.8146 33.1934C38.562 31.6178 39.4357 29.7201 39.4357 27.5C39.4357 25.2799 38.562 23.3822 36.8146 21.8066C35.0672 20.2311 32.9624 19.4434 30.5002 19.4434C28.0379 19.4434 25.9331 20.2311 24.1857 21.8066C22.4383 23.3822 21.5646 25.2799 21.5646 27.5C21.5646 29.7201 22.4383 31.6178 24.1857 33.1934ZM49.4435 29.7559L54.8048 33.5156C55.3608 33.8737 55.4403 34.375 55.0431 35.0195L49.9201 42.9688C49.6024 43.4701 49.0861 43.6133 48.3713 43.3984L42.0568 41.1426C40.3888 42.2168 38.9591 42.9688 37.7677 43.3984L36.8146 49.4141C36.6558 50.0586 36.2586 50.3809 35.6232 50.3809H25.3771C24.7417 50.3809 24.3446 50.0586 24.1857 49.4141L23.2326 43.3984C21.7235 42.8255 20.2938 42.0736 18.9435 41.1426L12.6291 43.3984C11.9142 43.6133 11.3979 43.4701 11.0802 42.9688L5.95719 35.0195C5.56006 34.375 5.63949 33.8737 6.19548 33.5156L11.5568 29.7559C11.4774 29.2546 11.4377 28.5026 11.4377 27.5C11.4377 26.4974 11.4774 25.7454 11.5568 25.2441L6.19548 21.4844C5.63949 21.1263 5.56006 20.625 5.95719 19.9805L11.0802 12.0313C11.3979 11.5299 11.9142 11.3867 12.6291 11.6016L18.9435 13.8574C20.6115 12.7832 22.0412 12.0313 23.2326 11.6016L24.1857 5.58594C24.3446 4.94141 24.7417 4.61914 25.3771 4.61914H35.6232C36.2586 4.61914 36.6558 4.94141 36.8146 5.58594L37.7677 11.6016C39.2769 12.1745 40.7065 12.9264 42.0568 13.8574L48.3713 11.6016C49.0861 11.3867 49.6024 11.5299 49.9201 12.0313L55.0431 19.9805C55.4403 20.625 55.3608 21.1263 54.8048 21.4844L49.4435 25.2441C49.5229 25.7454 49.5627 26.4974 49.5627 27.5C49.5627 28.5026 49.5229 29.2546 49.4435 29.7559Z" fill="#666666"/>
</svg>
