<svg width="25" height="24" viewBox="0 0 25 24" fill="none" xmlns="http://www.w3.org/2000/svg">
<path d="M9.42383 13.8281C10.8561 13.2656 12.2233 12.9844 13.5254 12.9844C14.8275 12.9844 16.1947 13.2656 17.627 13.8281C19.0592 14.3594 19.7754 15.0781 19.7754 15.9844V18H7.27539V15.9844C7.27539 15.0781 7.99154 14.3594 9.42383 13.8281ZM20.459 13.1719C21.6634 13.3594 22.7214 13.7031 23.6328 14.2031C24.5443 14.6719 25 15.2656 25 15.9844V18H21.875V15.9844C21.875 14.9219 21.403 13.9844 20.459 13.1719ZM15.7227 10.125C15.1042 10.7188 14.3717 11.0156 13.5254 11.0156C12.679 11.0156 11.9466 10.7188 11.3281 10.125C10.7096 9.53125 10.4004 8.82812 10.4004 8.01562C10.4004 7.20312 10.7096 6.5 11.3281 5.90625C11.9466 5.3125 12.679 5.01562 13.5254 5.01562C14.3717 5.01562 15.1042 5.3125 15.7227 5.90625C16.3411 6.5 16.6504 7.20312 16.6504 8.01562C16.6504 8.82812 16.3411 9.53125 15.7227 10.125ZM18.75 11.0156C18.4245 11.0156 18.1152 10.9688 17.8223 10.875C18.4408 10.0312 18.75 9.07812 18.75 8.01562C18.75 6.95312 18.4408 6 17.8223 5.15625C18.1152 5.0625 18.4245 5.01562 18.75 5.01562C19.5964 5.01562 20.3288 5.3125 20.9473 5.90625C21.5658 6.5 21.875 7.20312 21.875 8.01562C21.875 8.82812 21.5658 9.53125 20.9473 10.125C20.3288 10.7188 19.5964 11.0156 18.75 11.0156ZM8.34961 9.98438V12H5.22461V15H3.125V12H0V9.98438H3.125V6.98438H5.22461V9.98438H8.34961Z" fill="black"/>
</svg>
