<svg width="33" height="30" viewBox="0 0 33 30" fill="none" xmlns="http://www.w3.org/2000/svg">
<path d="M9.2168 18.9258C11.752 17.9883 14.1797 17.5195 16.5 17.5195C18.8203 17.5195 21.2266 17.9883 23.7188 18.9258C26.2539 19.8242 27.5215 21.0156 27.5215 22.5V25.0195H5.47852V22.5C5.47852 21.0156 6.72461 19.8242 9.2168 18.9258ZM20.3672 13.5352C19.293 14.5117 18.0039 15 16.5 15C14.9961 15 13.707 14.5117 12.6328 13.5352C11.5586 12.5586 11.0215 11.3867 11.0215 10.0195C11.0215 8.65234 11.5586 7.48047 12.6328 6.50391C13.707 5.48828 14.9961 4.98047 16.5 4.98047C18.0039 4.98047 19.293 5.48828 20.3672 6.50391C21.4414 7.48047 21.9785 8.65234 21.9785 10.0195C21.9785 11.3867 21.4414 12.5586 20.3672 13.5352Z" fill="black"/>
<path d="M4.2081 18.3555V10.9833H5.88068V18.3555H4.2081ZM1.35831 15.5057V13.8331H8.73047V15.5057H1.35831Z" fill="black"/>
</svg>
