<svg width="43" height="33" viewBox="0 0 43 33" fill="none" xmlns="http://www.w3.org/2000/svg">
<path d="M35.4766 20.625V17.8535H32.5234V20.625H35.4766ZM35.4766 26.1035V23.3965H32.5234V26.1035H35.4766ZM26.4766 9.60352V6.89648H23.5234V9.60352H26.4766ZM26.4766 15.1465V12.375H23.5234V15.1465H26.4766ZM26.4766 20.625V17.8535H23.5234V20.625H26.4766ZM26.4766 26.1035V23.3965H23.5234V26.1035H26.4766ZM17.4766 15.1465V12.375H14.5234V15.1465H17.4766ZM17.4766 20.625V17.8535H14.5234V20.625H17.4766ZM17.4766 26.1035V23.3965H14.5234V26.1035H17.4766ZM29.5 15.1465H38.5V28.875H11.5V9.60352H20.5V6.89648L25 2.77148L29.5 6.89648V15.1465Z" fill="black"/>
<path d="M4.48864 22.3125V14.4489H6.27273V22.3125H4.48864ZM1.44886 19.2727V17.4886H9.3125V19.2727H1.44886Z" fill="black"/>
</svg>
