<svg width="61" height="54" viewBox="0 0 61 54" fill="none" xmlns="http://www.w3.org/2000/svg">
<path d="M43.248 38.2852V29.2148H38.125V38.2852H43.248ZM33.002 38.2852V15.7148H27.998V38.2852H33.002ZM22.875 38.2852V22.4648H17.752V38.2852H22.875ZM48.252 6.75C49.6022 6.75 50.7936 7.20703 51.8262 8.12109C52.8587 9.03516 53.375 10.0898 53.375 11.2852V42.7148C53.375 43.9102 52.8587 44.9648 51.8262 45.8789C50.7936 46.793 49.6022 47.25 48.252 47.25H12.748C11.3978 47.25 10.2064 46.793 9.17383 45.8789C8.14128 44.9648 7.625 43.9102 7.625 42.7148V11.2852C7.625 10.0898 8.14128 9.03516 9.17383 8.12109C10.2064 7.20703 11.3978 6.75 12.748 6.75H48.252Z" fill="#666666"/>
</svg>
