<svg width="61" height="56" viewBox="0 0 61 56" fill="none" xmlns="http://www.w3.org/2000/svg">
<path d="M48.252 35V30.2969H43.248V35H48.252ZM48.252 44.2969V39.7031H43.248V44.2969H48.252ZM33.002 16.2969V11.7031H27.998V16.2969H33.002ZM33.002 25.7031V21H27.998V25.7031H33.002ZM33.002 35V30.2969H27.998V35H33.002ZM33.002 44.2969V39.7031H27.998V44.2969H33.002ZM17.752 25.7031V21H12.748V25.7031H17.752ZM17.752 35V30.2969H12.748V35H17.752ZM17.752 44.2969V39.7031H12.748V44.2969H17.752ZM38.125 25.7031H53.375V49H7.625V16.2969H22.875V11.7031L30.5 4.70312L38.125 11.7031V25.7031Z" fill="#666666"/>
</svg>
