<svg width="31" height="31" viewBox="0 0 31 31" fill="none" xmlns="http://www.w3.org/2000/svg">
<path d="M18.1035 6.47852V9.02148H2.60352V6.47852H6.47852L7.75 5.14648H12.8965L14.2285 6.47852H18.1035ZM3.875 23.25V10.3535H16.7715V23.25C16.7715 23.9362 16.5091 24.5417 15.9844 25.0664C15.5 25.5911 14.9147 25.8535 14.2285 25.8535H6.47852C5.79232 25.8535 5.18685 25.5911 4.66211 25.0664C4.13737 24.5417 3.875 23.9362 3.875 23.25ZM19.375 15.5H27.125V18.1035H19.375V15.5ZM19.375 10.3535H28.3965V12.8965H19.375V10.3535ZM19.375 20.6465H24.5215V23.25H19.375V20.6465Z" fill="#FF0000"/>
</svg>
