<svg width="37" height="37" viewBox="0 0 37 37" fill="none" xmlns="http://www.w3.org/2000/svg">
<path d="M8.59961 20.668C9.22591 21.2943 9.94857 21.6074 10.7676 21.6074C11.5866 21.6074 12.3092 21.2943 12.9355 20.668C13.5618 20.0417 13.875 19.319 13.875 18.5C13.875 17.681 13.5618 16.9583 12.9355 16.332C12.3092 15.7057 11.5866 15.3926 10.7676 15.3926C9.94857 15.3926 9.22591 15.7057 8.59961 16.332C8.02148 16.9583 7.73242 17.681 7.73242 18.5C7.73242 19.319 8.02148 20.0417 8.59961 20.668ZM19.5117 15.3926H35.4824V21.6074H32.375V27.75H26.2324V21.6074H19.5117C18.8854 23.4382 17.7773 24.9316 16.1875 26.0879C14.5977 27.196 12.791 27.75 10.7676 27.75C8.21419 27.75 6.02214 26.8587 4.19141 25.0762C2.40885 23.2454 1.51758 21.0534 1.51758 18.5C1.51758 15.9466 2.40885 13.7786 4.19141 11.9961C6.02214 10.1654 8.21419 9.25 10.7676 9.25C12.791 9.25 14.5977 9.82812 16.1875 10.9844C17.7773 12.0924 18.8854 13.5618 19.5117 15.3926Z" fill="#666666"/>
</svg>
