<svg width="61" height="56" viewBox="0 0 61 56" fill="none" xmlns="http://www.w3.org/2000/svg">
<path d="M17.0371 35.3281C21.7233 33.5781 26.2109 32.7031 30.5 32.7031C34.7891 32.7031 39.237 33.5781 43.8438 35.3281C48.5299 37.0052 50.873 39.2292 50.873 42V46.7031H10.127V42C10.127 39.2292 12.4303 37.0052 17.0371 35.3281ZM37.6484 25.2656C35.6628 27.0885 33.2799 28 30.5 28C27.7201 28 25.3372 27.0885 23.3516 25.2656C21.3659 23.4427 20.373 21.2552 20.373 18.7031C20.373 16.151 21.3659 13.9635 23.3516 12.1406C25.3372 10.2448 27.7201 9.29688 30.5 9.29688C33.2799 9.29688 35.6628 10.2448 37.6484 12.1406C39.6341 13.9635 40.627 16.151 40.627 18.7031C40.627 21.2552 39.6341 23.4427 37.6484 25.2656Z" fill="#3DC2DD"/>
</svg>
